<svg width="25" height="25" viewBox="0 0 25 25" fill="none" xmlns="http://www.w3.org/2000/svg">
<path d="M12.5 0C5.6 0 0 5.6 0 12.5C0 19.4 5.6 25 12.5 25C19.4 25 25 19.4 25 12.5C25 5.6 19.4 0 12.5 0ZM12.5 22.5C6.9875 22.5 2.5 18.0125 2.5 12.5C2.5 6.9875 6.9875 2.5 12.5 2.5C18.0125 2.5 22.5 6.9875 22.5 12.5C22.5 18.0125 18.0125 22.5 12.5 22.5ZM5.625 19.375L15.0125 15.0125L19.375 5.625L9.9875 9.9875L5.625 19.375ZM12.5 11.125C13.2625 11.125 13.875 11.7375 13.875 12.5C13.875 13.2625 13.2625 13.875 12.5 13.875C11.7375 13.875 11.125 13.2625 11.125 12.5C11.125 11.7375 11.7375 11.125 12.5 11.125Z" fill="white"/>
</svg>
