<svg width="29" height="25" viewBox="0 0 29 25" fill="none" xmlns="http://www.w3.org/2000/svg">
<path fill-rule="evenodd" clip-rule="evenodd" d="M12.3407 0.644769C12.8258 0.228712 13.4438 0 14.0829 0C14.722 0 15.34 0.228712 15.8252 0.644769L24.3035 7.91079L27.6315 10.5737C27.7687 10.6835 27.883 10.8193 27.9677 10.9733C28.0525 11.1273 28.1061 11.2964 28.1255 11.4711C28.1449 11.6458 28.1297 11.8226 28.0807 11.9915C28.0318 12.1603 27.95 12.3178 27.8402 12.4551C27.7304 12.5923 27.5946 12.7066 27.4406 12.7913C27.2866 12.8761 27.1174 12.9297 26.9427 12.9491C26.768 12.9685 26.5912 12.9533 26.4224 12.9043C26.2536 12.8554 26.096 12.7736 25.9588 12.6638L24.7879 11.7271V22.3237C24.7879 23.0335 24.506 23.7142 24.0041 24.2161C23.5022 24.718 22.8215 25 22.1117 25H16.7592V18.3094C16.7592 17.5996 16.4772 16.9189 15.9753 16.417C15.4734 15.9151 14.7927 15.6331 14.0829 15.6331C13.3731 15.6331 12.6924 15.9151 12.1905 16.417C11.6886 16.9189 11.4067 17.5996 11.4067 18.3094V25H6.05417C5.34439 25 4.66367 24.718 4.16178 24.2161C3.65988 23.7142 3.37792 23.0335 3.37792 22.3237V11.7258L2.20706 12.6625C2.07075 12.7789 1.91245 12.8667 1.74155 12.9207C1.57064 12.9748 1.39063 12.9939 1.21218 12.9771C1.03373 12.9602 0.860495 12.9076 0.702748 12.8225C0.545 12.7374 0.40596 12.6215 0.293879 12.4816C0.181798 12.3417 0.0989608 12.1808 0.0502855 12.0083C0.00161014 11.8357 -0.0119116 11.6552 0.0105227 11.4774C0.032957 11.2996 0.09089 11.128 0.180883 10.973C0.270876 10.818 0.391095 10.6827 0.534404 10.575L3.86232 7.91213L12.3407 0.644769Z" fill="white"/>
</svg>
