<svg width="12" height="10" viewBox="0 0 12 10" fill="none" xmlns="http://www.w3.org/2000/svg">
<path d="M5.37835 6.44678H3.36724C3.24823 6.44678 3.15186 6.54315 3.15186 6.66217V9.78467C3.15186 9.90368 3.24823 10.0001 3.36724 10.0001H5.37835C5.49736 10.0001 5.5936 9.90368 5.5936 9.78467V6.66202C5.5936 6.54301 5.49722 6.44678 5.37835 6.44678Z" fill="#13B094"/>
<path d="M8.51409 0H6.50299C6.38397 0 6.2876 0.0963771 6.2876 0.215389V9.78448C6.2876 9.90349 6.38397 9.99987 6.50299 9.99987H8.51409C8.63311 9.99987 8.72948 9.90349 8.72948 9.78448V0.215389C8.72948 0.0963771 8.63311 0 8.51409 0V0Z" fill="#13B094"/>
<path d="M11.6659 2.90698H9.65484C9.53583 2.90698 9.43945 3.00336 9.43945 3.12237V9.78435C9.43945 9.90336 9.53583 9.99974 9.65484 9.99974H11.6658C11.7848 9.99974 11.8812 9.90336 11.8812 9.78435V3.12237C11.8812 3.0035 11.7848 2.90698 11.6659 2.90698V2.90698Z" fill="#13B094"/>
<path d="M2.22649 2.90698H0.215389C0.096377 2.90698 0 3.00336 0 3.12237V9.78435C0 9.90336 0.096377 9.99974 0.215389 9.99974H2.22649C2.34551 9.99974 2.44188 9.90336 2.44188 9.78435V3.12237C2.44188 3.0035 2.34551 2.90698 2.22649 2.90698V2.90698Z" fill="#13B094"/>
</svg>
