<svg width="20" height="20" viewBox="0 0 20 20" fill="none" xmlns="http://www.w3.org/2000/svg">
<path fill-rule="evenodd" clip-rule="evenodd" d="M10 0C15.5228 0 20 4.47715 20 10C20 15.5228 15.5228 20 10 20C4.47715 20 0 15.5228 0 10C0 4.47715 4.47715 0 10 0ZM10 2C5.58172 2 2 5.58172 2 10C2 14.4183 5.58172 18 10 18C14.4183 18 18 14.4183 18 10C18 5.58172 14.4183 2 10 2ZM8.50387 5.13622L14.5039 9.13622C15.1265 9.4994 15.1631 10.3674 14.6137 10.79L8.50387 14.8638C7.83721 15.2527 7 14.7718 7 14V6C7 5.22821 7.83721 4.74734 8.50387 5.13622Z" fill="#050015"/>
</svg>
