<svg width="24" height="6" viewBox="0 0 24 6" fill="none" xmlns="http://www.w3.org/2000/svg">
<path d="M11.8839 5.28173C13.3424 5.28173 14.5248 4.09938 14.5248 2.64087C14.5248 1.18236 13.3424 0 11.8839 0C10.4254 0 9.24304 1.18236 9.24304 2.64087C9.24304 4.09938 10.4254 5.28173 11.8839 5.28173Z" fill="#050015"/>
<path d="M2.64087 5.28173C4.09938 5.28173 5.28173 4.09938 5.28173 2.64087C5.28173 1.18236 4.09938 0 2.64087 0C1.18236 0 0 1.18236 0 2.64087C0 4.09938 1.18236 5.28173 2.64087 5.28173Z" fill="#050015"/>
<path d="M21.127 5.28173C22.5855 5.28173 23.7678 4.09938 23.7678 2.64087C23.7678 1.18236 22.5855 0 21.127 0C19.6684 0 18.4861 1.18236 18.4861 2.64087C18.4861 4.09938 19.6684 5.28173 21.127 5.28173Z" fill="#050015"/>
</svg>
