<svg width="20" height="20" viewBox="0 0 20 20" fill="none" xmlns="http://www.w3.org/2000/svg">
<path d="M18.3333 0H1.66667C1.22464 0 0.800716 0.175595 0.488155 0.488155C0.175595 0.800716 0 1.22464 0 1.66667V18.3333C0 18.7754 0.175595 19.1993 0.488155 19.5118C0.800716 19.8244 1.22464 20 1.66667 20H18.3333C18.7754 20 19.1993 19.8244 19.5118 19.5118C19.8244 19.1993 20 18.7754 20 18.3333V1.66667C20 1.22464 19.8244 0.800716 19.5118 0.488155C19.1993 0.175595 18.7754 0 18.3333 0V0ZM1.66667 18.3333V1.66667H18.3333V18.3333H1.66667Z" fill="#050015"/>
<path d="M8.33335 14.5834L4.16669 10.45L5.49169 9.16671L8.33335 11.9584L14.5084 5.83337L15.8334 7.15004L8.33335 14.5834Z" fill="#050015"/>
</svg>
