<svg width="360" height="414" viewBox="0 0 360 414" fill="none" xmlns="http://www.w3.org/2000/svg">
<path d="M447.237 140.97C424.578 99.7215 347.085 33.1196 292.143 74.2224C237.202 115.325 203.058 111.773 152.976 68.6205C102.895 25.4681 49.9934 27.6227 14.9799 107.619C-20.0336 187.615 -28.825 188.911 -28.844 179.56" stroke="black" stroke-width="80" stroke-linecap="round"/>
<path d="M447.237 140.97C424.578 99.7215 347.085 33.1196 292.143 74.2224C237.202 115.325 203.058 111.773 152.976 68.6205C102.895 25.4681 49.9934 27.6227 14.9799 107.619C-20.0336 187.615 -28.825 188.911 -28.844 179.56" stroke="#D2EAFF" stroke-width="80" stroke-linecap="round"/>
<path d="M447.237 179.97C424.578 138.721 347.085 72.1196 292.143 113.222C237.202 154.325 203.058 150.773 152.976 107.62C102.895 64.4681 49.9934 66.6227 14.9799 146.619C-20.0336 226.615 -28.825 227.911 -28.844 218.56" stroke="black" stroke-width="80" stroke-linecap="round"/>
<path d="M447.237 179.97C424.578 138.721 347.085 72.1196 292.143 113.222C237.202 154.325 203.058 150.773 152.976 107.62C102.895 64.4681 49.9934 66.6227 14.9799 146.619C-20.0336 226.615 -28.825 227.911 -28.844 218.56" stroke="#B0D9FF" stroke-width="80" stroke-linecap="round"/>
<path d="M292.003 186.243C346.944 145.14 424.437 211.742 447.096 252.991L384.859 461.521L-16.1408 461.521L-83.5956 412.914C-83.9531 413.146 -84.1397 413.025 -84.1408 412.521L-83.5956 412.914C-77.3157 408.825 -18.2882 295.326 14.8391 219.64C49.8525 139.644 102.754 137.489 152.836 180.641C202.917 223.794 237.061 227.346 292.003 186.243Z" fill="#84C4FF"/>
<path d="M292.003 186.243C346.944 145.14 424.437 211.742 447.096 252.991L384.859 461.521L-16.1408 461.521L-83.5956 412.914C-83.9531 413.146 -84.1397 413.025 -84.1408 412.521L-83.5956 412.914C-77.3157 408.825 -18.2882 295.326 14.8391 219.64C49.8525 139.644 102.754 137.489 152.836 180.641C202.917 223.794 237.061 227.346 292.003 186.243Z" stroke="black" stroke-width="80" stroke-linecap="round"/>
<path d="M292.003 186.243C346.944 145.14 424.437 211.742 447.096 252.991L384.859 461.521L-16.1408 461.521L-83.5956 412.914C-83.9531 413.146 -84.1397 413.025 -84.1408 412.521L-83.5956 412.914C-77.3157 408.825 -18.2882 295.326 14.8391 219.64C49.8525 139.644 102.754 137.489 152.836 180.641C202.917 223.794 237.061 227.346 292.003 186.243Z" stroke="#84C4FF" stroke-width="80" stroke-linecap="round"/>
</svg>
